<?xml version="1.0" standalone="no"?>
<!DOCTYPE svg PUBLIC "-//W3C//DTD SVG 20010904//EN"
 "http://www.w3.org/TR/2001/REC-SVG-20010904/DTD/svg10.dtd">
<svg version="1.0" xmlns="http://www.w3.org/2000/svg"
 width="500.000000pt" height="500.000000pt" viewBox="0 0 500.000000 500.000000"
 preserveAspectRatio="xMidYMid meet">

<g transform="translate(0.000000,500.000000) scale(0.100000,-0.100000)"
fill="#000000" stroke="none">
<path d="M0 2500 l0 -2500 2500 0 2500 0 0 2500 0 2500 -2500 0 -2500 0 0
-2500z m4750 80 l0 -700 -257 2 -258 3 253 2 252 3 0 690 0 690 -2240 0 -2240
0 0 -690 0 -690 253 -3 252 -2 -257 -3 -258 -2 0 700 0 700 2250 0 2250 0 0
-700z m-1768 212 c30 -17 63 -72 71 -119 6 -31 5 -33 -22 -33 -25 0 -30 5 -36
36 -9 51 -48 84 -97 84 -88 0 -113 -42 -113 -190 0 -87 3 -111 20 -138 26 -43
80 -61 126 -42 35 15 69 63 69 98 0 20 5 23 28 20 24 -3 27 -6 24 -38 -5 -43
-34 -92 -70 -116 -40 -27 -141 -26 -178 2 -61 45 -69 65 -72 196 -5 170 17
222 105 254 43 15 104 10 145 -14z m-1911 -212 c38 -124 69 -228 69 -232 0 -5
-13 -8 -28 -8 -26 0 -30 5 -47 60 l-18 60 -99 0 -98 0 -17 -60 c-15 -55 -18
-60 -45 -60 -15 0 -28 4 -28 9 0 8 124 420 135 449 3 9 21 12 56 10 l51 -3 69
-225z m2489 134 l0 -96 31 26 c37 31 69 40 115 33 79 -13 124 -76 124 -174 -1
-152 -142 -226 -247 -130 l-23 20 0 -26 c0 -22 -5 -27 -25 -27 l-25 0 0 235 0
235 25 0 c25 0 25 0 25 -96z m390 -4 c3 -52 8 -88 12 -79 3 9 22 23 41 32 142
68 270 -97 196 -251 -42 -87 -162 -109 -229 -42 l-20 20 0 -25 c0 -21 -5 -25
-30 -25 l-30 0 0 228 c0 126 3 232 7 236 4 4 16 6 28 4 18 -3 20 -12 25 -98z
m-2535 -44 c54 -23 65 -56 65 -201 l0 -125 -25 0 -25 0 0 111 c0 140 -18 178
-85 179 -74 0 -105 -57 -105 -195 0 -95 0 -95 -25 -95 l-25 0 0 165 0 165 25
0 c20 0 25 -5 25 -25 0 -14 5 -25 10 -25 6 0 10 5 10 10 0 16 62 50 93 50 15
0 43 -6 62 -14z m407 -12 c38 -34 48 -77 48 -199 0 -115 0 -115 -24 -115 -24
0 -24 1 -28 121 -3 118 -4 121 -31 145 -32 27 -66 30 -106 9 -39 -20 -51 -61
-51 -176 0 -99 0 -99 -25 -99 l-25 0 0 165 0 165 25 0 c20 0 25 -5 25 -27 l0
-27 28 26 c15 14 34 28 42 31 28 11 101 0 122 -19z m336 6 c17 -11 32 -24 32
-30 0 -5 5 -10 10 -10 6 0 10 11 10 25 0 20 5 25 25 25 l25 0 0 -140 c0 -118
2 -140 15 -140 9 0 15 -10 15 -26 0 -23 -3 -25 -32 -22 -23 2 -36 10 -43 26
-11 26 -23 28 -32 7 -8 -22 -56 -45 -95 -45 -83 0 -148 77 -148 175 0 132 118
216 218 155z m1209 -6 c55 -41 68 -70 68 -149 0 -59 -4 -79 -21 -101 -54 -73
-136 -93 -214 -52 -115 59 -118 241 -5 306 50 28 131 26 172 -4z m-2344 -721
c-25 -3 -33 -9 -33 -24 0 -14 7 -19 25 -19 14 0 25 -4 25 -10 0 -5 -11 -10
-25 -10 -18 0 -25 -5 -25 -19 0 -15 8 -21 33 -24 28 -3 26 -4 -10 -5 l-43 -2
0 60 0 60 43 -2 c36 -1 38 -2 10 -5z m215 -5 c20 -20 13 -32 -8 -13 -19 17
-50 15 -50 -5 0 -5 16 -16 36 -25 28 -11 35 -19 32 -37 -4 -32 -62 -38 -78 -9
-6 12 -7 21 -1 21 5 0 11 -7 15 -15 7 -20 42 -19 50 1 4 11 -4 19 -29 30 -33
13 -46 40 -28 57 11 11 48 8 61 -5z m197 3 c-15 -6 -21 -20 -26 -62 l-6 -54
-1 57 c-2 45 -6 57 -19 61 -10 3 2 5 27 5 31 0 39 -2 25 -7z m200 -47 c9 -31
14 -59 11 -62 -3 -2 -8 3 -12 12 -8 21 -50 21 -63 -1 -15 -26 -13 -4 4 55 21
68 39 67 60 -4z m204 38 c7 -13 6 -23 -1 -30 -9 -9 -9 -15 0 -24 19 -19 -4
-48 -41 -48 l-32 0 0 60 0 60 32 0 c21 0 36 -6 42 -18z m141 -36 c0 -54 0 -55
33 -59 28 -3 26 -4 -10 -5 l-43 -2 0 60 c0 33 4 60 10 60 6 0 10 -24 10 -54z
m248 47 c-14 -3 -18 -15 -18 -53 0 -38 4 -50 18 -53 9 -3 -3 -5 -28 -5 -36 -1
-41 1 -22 8 18 8 22 17 22 50 0 33 -4 42 -22 50 -19 7 -14 9 22 8 25 0 37 -2
28 -5z m211 -18 c3 -20 3 -20 -17 -2 -22 20 -42 16 -42 -9 0 -8 8 -14 19 -14
24 0 44 -24 39 -47 -2 -13 -13 -18 -38 -18 -30 0 -35 4 -37 25 l-3 25 10 -23
c7 -16 17 -22 32 -20 35 5 33 27 -6 43 -23 10 -36 22 -36 33 0 27 10 33 45 30
21 -2 31 -9 34 -23z m161 -25 c24 0 29 5 33 28 2 15 4 -2 4 -38 0 -36 -2 -53
-4 -37 -4 22 -9 27 -33 27 -24 0 -29 -5 -33 -27 -2 -16 -4 1 -4 37 0 36 2 53
4 38 4 -23 9 -28 33 -28z m208 43 c-38 -6 -40 -43 -3 -43 14 0 25 -4 25 -10 0
-5 -11 -10 -25 -10 -37 0 -35 -37 3 -43 22 -3 20 -4 -10 -6 l-38 -1 0 60 0 60
38 -1 c30 -2 32 -3 10 -6z m220 -5 c16 -16 16 -80 0 -96 -7 -7 -23 -12 -38
-12 -24 0 -25 2 -25 60 0 58 1 60 26 60 14 0 30 -5 37 -12z m402 -8 c13 -25 7
-36 -31 -55 -39 -21 -37 -33 9 -38 34 -3 33 -4 -10 -5 -60 -2 -65 19 -13 50
38 22 44 50 12 56 -12 3 -20 -4 -24 -17 -3 -12 -9 -21 -14 -21 -12 0 -11 7 1
31 14 25 56 25 70 -1z m195 -40 c0 -50 -2 -55 -23 -58 -34 -5 -52 15 -52 57 0
44 16 63 50 59 23 -3 25 -7 25 -58z m203 27 c3 -24 -2 -30 -27 -40 -40 -15
-39 -35 2 -40 28 -3 26 -4 -10 -5 -59 -3 -58 35 0 57 30 12 36 38 11 48 -11 4
-23 -2 -35 -18 -13 -17 -19 -20 -19 -8 0 23 22 40 50 37 19 -2 26 -10 28 -31z
m190 21 c16 -16 16 -80 0 -96 -17 -17 -55 -15 -62 4 -10 26 -7 79 6 92 7 7 19
12 28 12 9 0 21 -5 28 -12z"/>
<path d="M907 2652 c-20 -70 -37 -130 -37 -135 0 -4 36 -7 81 -7 60 0 80 3 77
13 -23 89 -74 257 -79 257 -3 0 -22 -57 -42 -128z"/>
<path d="M3623 2620 c-13 -5 -32 -24 -43 -42 -29 -45 -23 -127 10 -163 51 -54
147 -38 176 30 46 111 -40 216 -143 175z"/>
<path d="M3984 2596 c-31 -31 -34 -40 -34 -91 0 -51 3 -60 34 -91 40 -40 83
-45 133 -14 72 43 64 184 -13 218 -46 22 -83 15 -120 -22z"/>
<path d="M2050 2617 c-37 -18 -62 -73 -57 -126 6 -56 35 -94 80 -105 72 -18
128 31 129 115 1 99 -73 156 -152 116z"/>
<path d="M3211 2604 c-38 -32 -54 -85 -41 -134 12 -43 18 -51 50 -73 71 -49
170 14 170 108 0 101 -106 160 -179 99z"/>
<path d="M1597 1909 c-10 -37 -8 -49 8 -49 16 0 18 23 6 54 -7 18 -8 18 -14
-5z"/>
<path d="M1790 1911 c0 -15 6 -21 21 -21 14 0 19 5 17 17 -5 26 -38 29 -38 4z"/>
<path d="M1790 1849 c0 -25 33 -22 38 4 2 12 -3 17 -17 17 -15 0 -21 -6 -21
-21z"/>
<path d="M2986 1923 c-3 -4 -6 -26 -6 -50 0 -31 4 -43 15 -43 20 0 38 37 31
65 -6 23 -29 39 -40 28z"/>
<path d="M3570 1905 c-13 -34 4 -78 28 -73 19 4 27 37 18 74 -8 31 -34 31 -46
-1z m30 -25 c0 -5 -4 -10 -10 -10 -5 0 -10 5 -10 10 0 6 5 10 10 10 6 0 10 -4
10 -10z"/>
<path d="M3972 1918 c-31 -31 0 -105 33 -78 25 21 14 90 -15 90 -3 0 -11 -5
-18 -12z m28 -38 c0 -5 -4 -10 -10 -10 -5 0 -10 5 -10 10 0 6 5 10 10 10 6 0
10 -4 10 -10z"/>
</g>
</svg>
