<?xml version="1.0" encoding="UTF-8" standalone="no" ?>
<!DOCTYPE svg PUBLIC "-//W3C//DTD SVG 1.1//EN" "http://www.w3.org/Graphics/SVG/1.1/DTD/svg11.dtd">
<svg xmlns="http://www.w3.org/2000/svg" xmlns:xlink="http://www.w3.org/1999/xlink" version="1.1" width="300" height="200" viewBox="0 0 1280 1024" xml:space="preserve">
<desc>Created with Fabric.js 3.1.0</desc>
<defs>
</defs>
<g transform="matrix(1.9692780337941629 0 0 1.9692780337941629 640.0153846153846 512.012312418764)" id="background-logo"  >
<rect style="stroke: none; stroke-width: 1; stroke-dasharray: none; stroke-linecap: butt; stroke-dashoffset: 0; stroke-linejoin: miter; stroke-miterlimit: 4; fill: rgb(255,255,255); fill-rule: nonzero; opacity: 1;"  paint-order="stroke"  x="-325" y="-260" rx="0" ry="0" width="650" height="520" />
</g>
<g transform="matrix(1.9692780337941627 0 0 1.9692780337941627 805.4000901877919 461.0365112756887)" id="text-logo-path"  >
<path style="stroke: rgb(165,122,175); stroke-width: 0; stroke-dasharray: none; stroke-linecap: butt; stroke-dashoffset: 0; stroke-linejoin: miter; stroke-miterlimit: 10; fill: rgb(130,115,151); fill-rule: nonzero; opacity: 1;"  paint-order="stroke"  transform=" translate(-173.53000000000003, 23.580000000000002)" d="M 2.46 0 L -0.48 0 L 21.36 -47.48 L 23.93 -47.48 L 44.95 0 L 42.21 0 L 35.41 -15.24 L 9.37 -15.24 L 2.46 0 Z M 22.7 -43.96 L 10.49 -17.57 L 34.45 -17.57 L 22.7 -43.96 Z M 50.59 0 L 48.06 0 L 48.06 -34.15 L 50.59 -34.15 L 50.59 -27.99 Q 54.07 -35 63.68 -35 L 63.68 -35 Q 69.76 -35 73.49 -32.06 L 73.49 -32.06 Q 77.62 -28.92 77.62 -23.17 L 77.62 -23.17 L 77.62 0 L 75.09 0 L 75.09 -22.46 Q 75.09 -27.41 72.02 -30.04 Q 68.94 -32.68 63.75 -32.68 L 63.75 -32.68 Q 57.66 -32.68 54.12 -28.93 Q 50.59 -25.19 50.59 -19.17 L 50.59 -19.17 L 50.59 0 Z M 87.33 0 L 84.8 0 L 84.8 -34.15 L 87.33 -34.15 L 87.33 -27.99 Q 90.82 -35 100.42 -35 L 100.42 -35 Q 106.5 -35 110.23 -32.06 L 110.23 -32.06 Q 114.37 -28.92 114.37 -23.17 L 114.37 -23.17 L 114.37 0 L 111.84 0 L 111.84 -22.46 Q 111.84 -27.41 108.76 -30.04 Q 105.68 -32.68 100.49 -32.68 L 100.49 -32.68 Q 94.4 -32.68 90.87 -28.93 Q 87.33 -25.19 87.33 -19.17 L 87.33 -19.17 L 87.33 0 Z M 119.53 -17.02 L 119.53 -17.02 Q 119.53 -24.92 123.8 -29.8 L 123.8 -29.8 Q 128.41 -35 136.48 -35 L 136.48 -35 Q 146.77 -35 150.97 -26.73 L 150.97 -26.73 L 150.97 -34.86 L 153.47 -34.86 L 153.47 0 L 150.97 0 L 150.97 -7.69 Q 146.49 0.79 136.17 0.79 L 136.17 0.79 Q 128.28 0.79 123.8 -4.41 L 123.8 -4.41 Q 119.53 -9.23 119.53 -17.02 Z M 121.99 -17.02 L 121.99 -17.02 Q 121.99 -10.29 125.47 -6.08 L 125.47 -6.08 Q 129.34 -1.54 136.1 -1.54 L 136.1 -1.54 Q 142.84 -1.54 146.97 -6.08 L 146.97 -6.08 Q 150.97 -10.42 150.97 -17.02 L 150.97 -17.02 Q 150.97 -24.23 147.11 -28.45 Q 143.25 -32.68 136.1 -32.68 L 136.1 -32.68 Q 129.37 -32.68 125.54 -27.99 L 125.54 -27.99 Q 121.99 -23.65 121.99 -17.02 Z M 185.29 -23.38 L 185.29 -23.38 Q 185.29 -34.66 192.04 -41.31 Q 198.79 -47.95 210.34 -47.95 L 210.34 -47.95 Q 223.71 -47.95 229.69 -39.34 L 229.69 -39.34 L 227.57 -37.94 Q 222.37 -45.63 210.34 -45.63 L 210.34 -45.63 Q 200.05 -45.63 193.94 -39.68 Q 187.82 -33.74 187.82 -23.65 L 187.82 -23.65 Q 187.82 -13.64 193.7 -7.72 Q 199.58 -1.81 209.59 -1.81 L 209.59 -1.81 Q 221.14 -1.81 226.95 -9.67 L 226.95 -9.67 L 229.11 -8.27 Q 222.51 0.48 209.66 0.48 L 209.66 0.48 Q 198.38 0.48 191.83 -5.95 Q 185.29 -12.37 185.29 -23.38 Z M 234.06 -17.09 L 234.06 -17.09 Q 234.06 -25.22 238.86 -30.11 Q 243.67 -35 251.7 -35 L 251.7 -35 Q 259.77 -35 264.52 -30.1 Q 269.27 -25.19 269.27 -17.09 L 269.27 -17.09 Q 269.27 -9.02 264.45 -4.12 Q 259.63 0.79 251.56 0.79 L 251.56 0.79 Q 243.43 0.79 238.68 -4.27 L 238.68 -4.27 Q 234.06 -9.09 234.06 -17.09 Z M 236.59 -17.09 L 236.59 -17.09 Q 236.59 -10.08 240.64 -5.81 Q 244.69 -1.54 251.63 -1.54 L 251.63 -1.54 Q 258.57 -1.54 262.65 -5.81 Q 266.74 -10.08 266.74 -17.09 L 266.74 -17.09 Q 266.74 -24.23 262.72 -28.45 Q 258.71 -32.68 251.63 -32.68 L 251.63 -32.68 Q 244.62 -32.68 240.61 -28.42 Q 236.59 -24.17 236.59 -17.09 Z M 276.75 0 L 274.22 0 L 274.22 -47.48 L 276.75 -47.48 L 276.75 -27.04 Q 280.82 -35.27 291.11 -35.27 L 291.11 -35.27 Q 291.14 -35.27 291.18 -35.27 L 291.18 -35.27 Q 299.31 -35.27 303.86 -30.04 L 303.86 -30.04 Q 308.06 -25.22 308.06 -17.09 L 308.06 -17.09 Q 308.06 -8.96 303.62 -4.14 Q 299.17 0.68 291.11 0.68 L 291.11 0.68 Q 286.49 0.68 282.65 -1.52 Q 278.8 -3.73 276.75 -7.62 L 276.75 -7.62 L 276.75 0 Z M 276.75 -16.95 L 276.75 -16.95 Q 276.75 -10.22 280.82 -5.91 Q 284.89 -1.61 291.52 -1.61 L 291.52 -1.61 Q 298.32 -1.61 302.11 -6.15 L 302.11 -6.15 Q 305.6 -10.36 305.6 -17.16 L 305.6 -17.16 Q 305.6 -24.17 302.11 -28.33 L 302.11 -28.33 Q 298.32 -32.98 291.45 -32.98 L 291.45 -32.98 Q 284.1 -32.98 280.27 -28.4 L 280.27 -28.4 Q 276.79 -24.27 276.75 -16.95 Z M 316.23 0 L 313.7 0 L 313.7 -47.48 L 316.23 -47.48 L 316.23 -27.04 Q 320.3 -35.27 330.59 -35.27 L 330.59 -35.27 Q 330.62 -35.27 330.65 -35.27 L 330.65 -35.27 Q 338.79 -35.27 343.33 -30.04 L 343.33 -30.04 Q 347.54 -25.22 347.54 -17.09 L 347.54 -17.09 Q 347.54 -8.96 343.1 -4.14 Q 338.65 0.68 330.59 0.68 L 330.59 0.68 Q 325.97 0.68 322.13 -1.52 Q 318.28 -3.73 316.23 -7.62 L 316.23 -7.62 L 316.23 0 Z M 316.23 -16.95 L 316.23 -16.95 Q 316.23 -10.22 320.3 -5.91 Q 324.37 -1.61 331 -1.61 L 331 -1.61 Q 337.8 -1.61 341.59 -6.15 L 341.59 -6.15 Q 345.08 -10.36 345.08 -17.16 L 345.08 -17.16 Q 345.08 -24.17 341.59 -28.33 L 341.59 -28.33 Q 337.8 -32.98 330.93 -32.98 L 330.93 -32.98 Q 323.58 -32.98 319.75 -28.4 L 319.75 -28.4 Q 316.26 -24.27 316.23 -16.95 Z" stroke-linecap="round" />
</g>
<g transform="matrix(1.7102008054014346 0 0 1.7102008054014346 808.4592982271063 583.8237879394122)" id="tagline-76058886-8c84-4785-9554-4c69d1ca9884-logo-path"  >
<path style="stroke: none; stroke-width: 0; stroke-dasharray: none; stroke-linecap: butt; stroke-dashoffset: 0; stroke-linejoin: miter; stroke-miterlimit: 4; fill: rgb(130,115,151); fill-rule: nonzero; opacity: 1;"  paint-order="stroke"  transform=" translate(-155.19500000000002, 17.830000000000002)" d="M 16.74 -13.46 L 2.33 -13.46 L 2.33 -14.52 L 16.74 -14.52 L 16.74 -13.46 Z M 66.74 0 L 39.91 0 L 39.91 -35.95 L 66.46 -35.95 L 66.46 -34.19 L 41.77 -34.19 L 41.77 -19.62 L 63.66 -19.62 L 63.66 -17.91 L 41.77 -17.91 L 41.77 -1.76 L 66.74 -1.76 L 66.74 0 Z M 68.68 -11.49 L 68.68 -11.49 L 68.68 -12.4 L 70.6 -12.4 L 70.6 -11.72 Q 70.6 -1.4 84.7 -1.37 L 84.7 -1.37 Q 89.52 -1.37 92.75 -2.87 L 92.75 -2.87 Q 97.1 -4.89 97.1 -9.11 L 97.1 -9.11 Q 97.1 -12.03 95.52 -13.56 L 95.52 -13.56 Q 94.2 -14.88 91.12 -15.79 L 91.12 -15.79 Q 89.54 -16.25 83.54 -17.55 L 83.54 -17.55 Q 76.81 -18.97 74.43 -20.19 L 74.43 -20.19 Q 69.87 -22.62 69.85 -27.3 L 69.85 -27.3 Q 69.85 -36.31 83.64 -36.31 L 83.64 -36.31 Q 98.06 -36.31 98.26 -25.28 L 98.26 -25.28 L 96.35 -25.28 Q 96.04 -30.8 92.34 -32.87 L 92.34 -32.87 Q 89.46 -34.55 83.82 -34.55 L 83.82 -34.55 Q 83.74 -34.55 83.64 -34.55 L 83.64 -34.55 Q 71.76 -34.55 71.76 -27.3 L 71.76 -27.3 Q 71.76 -23.71 75.1 -21.89 L 75.1 -21.89 Q 77.27 -20.73 82.53 -19.77 L 82.53 -19.77 Q 92.13 -18.01 95.29 -16.07 L 95.29 -16.07 Q 98.99 -13.85 99.01 -8.95 L 99.01 -8.95 Q 99.01 -4.04 93.97 -1.53 L 93.97 -1.53 Q 90.11 0.36 84.65 0.36 L 84.65 0.36 Q 77.82 0.36 73.68 -2.07 L 73.68 -2.07 Q 68.68 -5.1 68.68 -11.49 Z M 114.67 -34.19 L 100.9 -34.19 L 100.9 -35.95 L 130.3 -35.95 L 130.3 -34.19 L 116.58 -34.19 L 116.58 0 L 114.67 0 L 114.67 -34.19 Z M 177.76 0 L 151.42 0 Q 151.52 -9.6 162.13 -15.94 L 162.13 -15.94 Q 163.99 -17 169.56 -20.29 L 169.56 -20.29 Q 174.27 -23.03 174.27 -26.29 L 174.27 -26.29 Q 174.27 -29.89 171.19 -31.65 L 171.19 -31.65 Q 168.7 -33.07 164.85 -33.07 L 164.85 -33.07 Q 154.03 -33.07 154.03 -22.46 L 154.03 -22.46 L 152.12 -22.46 Q 152.12 -28.62 155.38 -31.73 Q 158.64 -34.83 164.51 -34.83 L 164.51 -34.83 Q 169.43 -34.83 172.46 -32.97 L 172.46 -32.97 Q 176.11 -30.74 176.13 -26.14 L 176.13 -26.14 Q 176.13 -21.74 167.59 -16.95 L 167.59 -16.95 Q 163.19 -14.47 161.12 -13.2 L 161.12 -13.2 Q 158.15 -10.92 156.15 -8.1 L 156.15 -8.1 Q 153.67 -4.71 153.54 -1.76 L 153.54 -1.76 L 177.76 -1.76 L 177.76 0 Z M 181.9 -12.99 L 181.9 -12.99 L 181.9 -21.89 Q 181.9 -28.05 185.5 -31.81 Q 189.1 -35.56 195.26 -35.56 L 195.26 -35.56 Q 201.42 -35.56 204.96 -31.82 Q 208.51 -28.08 208.51 -21.89 L 208.51 -21.89 L 208.51 -12.99 Q 208.51 -6.78 204.96 -3.07 Q 201.42 0.65 195.26 0.65 L 195.26 0.65 Q 189.05 0.65 185.47 -3.12 Q 181.9 -6.88 181.9 -12.99 Z M 183.82 -21.89 L 183.82 -12.99 Q 183.82 -7.69 186.88 -4.4 Q 189.95 -1.11 195.2 -1.11 L 195.2 -1.11 Q 200.56 -1.11 203.64 -4.5 L 203.64 -4.5 Q 206.62 -7.69 206.59 -12.99 L 206.59 -12.99 L 206.59 -21.89 Q 206.59 -27.2 203.52 -30.51 Q 200.46 -33.82 195.2 -33.82 L 195.2 -33.82 Q 189.9 -33.82 186.86 -30.54 Q 183.82 -27.25 183.82 -21.89 L 183.82 -21.89 Z M 239.66 0 L 213.32 0 Q 213.42 -9.6 224.03 -15.94 L 224.03 -15.94 Q 225.9 -17 231.46 -20.29 L 231.46 -20.29 Q 236.17 -23.03 236.17 -26.29 L 236.17 -26.29 Q 236.17 -29.89 233.09 -31.65 L 233.09 -31.65 Q 230.61 -33.07 226.75 -33.07 L 226.75 -33.07 Q 215.93 -33.07 215.93 -22.46 L 215.93 -22.46 L 214.02 -22.46 Q 214.02 -28.62 217.28 -31.73 Q 220.54 -34.83 226.41 -34.83 L 226.41 -34.83 Q 231.33 -34.83 234.36 -32.97 L 234.36 -32.97 Q 238.01 -30.74 238.03 -26.14 L 238.03 -26.14 Q 238.03 -21.74 229.49 -16.95 L 229.49 -16.95 Q 225.09 -14.47 223.02 -13.2 L 223.02 -13.2 Q 220.05 -10.92 218.06 -8.1 L 218.06 -8.1 Q 215.57 -4.71 215.44 -1.76 L 215.44 -1.76 L 239.66 -1.76 L 239.66 0 Z M 243.81 -12.99 L 243.81 -12.99 L 243.81 -21.89 Q 243.81 -28.05 247.4 -31.81 Q 251 -35.56 257.16 -35.56 L 257.16 -35.56 Q 263.32 -35.56 266.86 -31.82 Q 270.41 -28.08 270.41 -21.89 L 270.41 -21.89 L 270.41 -12.99 Q 270.41 -6.78 266.86 -3.07 Q 263.32 0.65 257.16 0.65 L 257.16 0.65 Q 250.95 0.65 247.38 -3.12 Q 243.81 -6.88 243.81 -12.99 Z M 245.72 -21.89 L 245.72 -12.99 Q 245.72 -7.69 248.79 -4.4 Q 251.85 -1.11 257.11 -1.11 L 257.11 -1.11 Q 262.46 -1.11 265.54 -4.5 L 265.54 -4.5 Q 268.52 -7.69 268.49 -12.99 L 268.49 -12.99 L 268.49 -21.89 Q 268.49 -27.2 265.43 -30.51 Q 262.36 -33.82 257.11 -33.82 L 257.11 -33.82 Q 251.8 -33.82 248.76 -30.54 Q 245.72 -27.25 245.72 -21.89 L 245.72 -21.89 Z M 308.06 -13.46 L 293.65 -13.46 L 293.65 -14.52 L 308.06 -14.52 L 308.06 -13.46 Z" stroke-linecap="round" />
</g>
<g transform="matrix(1.082493655374961 0 0 1.082493655374961 271.45536283371666 512.012312418764)" style="" id="logo-logo"  >
	<g transform="matrix(1.409789276160802 0 0 1.4097892761608022 0 0)" style=""  >
	<g transform="matrix(1 0 0 1 -46.69999999999998 5.250000000000014)"  >
<path style="stroke: none; stroke-width: 1; stroke-dasharray: none; stroke-linecap: butt; stroke-dashoffset: 0; stroke-linejoin: miter; stroke-miterlimit: 4; fill: rgb(130,115,151); fill-rule: nonzero; opacity: 1;"  paint-order="stroke"  transform=" translate(-47.30000000000002, -105.2)" d="M 0.8 131.7 L 0 131.5 l 0.2 0.8 c 0.8 3.1 2.9 5.7 5.8 7.1 c 2.7 1.3 5.7 2.3 8.7 2.8 l 0.4 0.1 c 1.3 2.4 2.8 4.8 4.3 7.1 c -1.9 -1 -4 -1.7 -6.1 -2 c -0.3 -1.3 -1.4 -2.2 -2.7 -2.1 c -1.4 -0.2 -2.7 0.7 -2.9 2.1 s 0.7 2.7 2.1 2.9 c 0.3 0 0.5 0 0.8 0 c 1.2 0 2.2 -0.7 2.6 -1.8 c 2.9 0.4 5.7 1.5 8 3.4 c 1.7 2.3 3.5 4.6 5.4 6.7 c -1.8 -1.2 -3.8 -2 -5.9 -2.5 c -1.6 -0.4 -3.2 -0.6 -4.8 -0.6 c -2 0 -3.9 0.3 -5.8 0.9 l -0.5 0.2 l 0.2 0.5 c 0.7 2 2.5 3.6 5.3 4.7 c 4.7 1.8 9.8 1.9 14.6 0.4 l 0.2 -0.1 c 2.8 2.8 5.8 5.5 8.9 7.9 c -5.7 -1.1 -11.6 0.7 -15.6 4.9 l -0.5 0.5 l 0.6 0.4 c 1.8 1.1 4 1.6 6.1 1.5 h 0.6 c 4.7 -0.2 9.2 -1.5 13.2 -3.9 c 3.1 2.1 6.3 4 9.6 5.7 c -0.9 0 -1.7 0.4 -2.2 1.2 c -0.5 1 -0.3 2.3 0.5 3.1 c 0.7 0.6 1.6 1.1 2.5 1.3 c 0.5 0.2 1.1 0.3 1.7 0.4 c -0.7 0.1 -1.5 0.5 -2.1 0.9 c -0.8 0.6 -1.1 1.8 -0.7 2.7 c 0.4 0.9 1.4 1.3 2.8 1.3 h 0.3 h 0.7 c -0.4 0.3 -0.8 0.6 -1.1 1 c -0.6 0.8 -0.5 1.9 0.1 2.6 c 0.4 0.4 1 0.7 1.6 0.6 c 0.5 0 1.1 -0.1 1.6 -0.3 l 0 0 c 4.2 -1.4 10.1 -4.2 13.2 -7.7 l 0 0 c 1.7 0.4 3.3 0.8 5 1.2 c -1.9 1 -3.2 2.7 -3.6 4.8 l -0.2 0.1 c -0.9 1.1 -1.1 2.6 -0.6 3.9 c 0.6 1.2 1.5 2.3 2.7 3.1 c 0.3 0.2 0.6 0.4 0.9 0.5 c 0.1 0 0.3 0.1 0.4 0.1 c 0.3 0 0.6 -0.1 0.9 -0.3 c 0.3 -0.3 0.5 -0.8 0.5 -1.2 c 0.1 -1.7 -0.3 -3.5 -1.3 -4.9 c -0.3 -0.5 -0.7 -1 -1.2 -1.3 c -0.3 -0.1 -0.5 -0.2 -0.8 -0.3 c 0.6 -2.1 2.3 -3.6 4.5 -4 c 0.1 0 0.1 0 0.2 -0.1 c 5.1 0.9 10.3 1.3 15.5 1.3 v -1 c -3.9 0 -7.7 -0.3 -11.6 -0.8 h -0.1 c -2.1 -0.8 -3.9 -2.5 -4.7 -4.6 c -0.7 -1.6 -0.8 -3.4 -0.3 -5.1 c 0.4 -0.2 0.8 -0.4 1.1 -0.8 c 0.3 -0.5 0.6 -1.1 0.7 -1.6 c 0.7 -2.6 0.6 -5.4 -0.2 -8 l -0.2 -0.4 l -0.5 0.1 c -1.1 0.3 -2.1 1 -2.7 2 c -1.2 2 -1.6 4.3 -1.3 6.5 c 0.1 1 0.8 1.9 1.8 2.4 c -0.5 1.8 -0.3 3.8 0.4 5.5 c 0.6 1.4 1.6 2.7 2.8 3.7 c -2.4 -0.4 -4.9 -0.9 -7.2 -1.5 l -0.2 -0.4 l -0.1 -0.2 c 0 0 0 0 0 -0.1 c -1.3 -4.4 -5.8 -9.6 -9.2 -12.6 c -1.1 -1 -2.1 -1.3 -3 -0.9 c -0.9 0.5 -1.3 1.4 -1.1 2.4 c 0.1 0.5 0.3 0.9 0.6 1.4 l -0.6 -0.3 l 0 0 c -1.5 -0.7 -2.6 -0.7 -3.4 -0.1 c -0.7 0.7 -0.9 1.9 -0.4 2.8 c 0.4 0.7 1 1.4 1.8 1.8 l 0.1 0.1 c -0.5 -0.1 -1.1 -0.2 -1.6 -0.2 c -4.2 -2 -8.3 -4.4 -12.1 -7.1 c 2.3 -6.6 0.3 -13.9 -4.9 -18.6 l -0.6 -0.6 l -0.3 0.8 c -1.6 5.3 -0.8 11 2.2 15.6 c -3.7 -2.9 -7.2 -6 -10.4 -9.4 c 3.4 -7.2 2.5 -15.7 -2.5 -21.9 l -0.5 -0.6 l -0.4 0.8 c -2.7 5.5 -2.8 12 -0.2 17.6 c -2.3 -2.8 -4.5 -5.7 -6.4 -8.8 c -0.8 -2.8 -0.8 -5.8 0.2 -8.6 c 0.4 0.6 1.1 1 1.8 1 c 1.5 -0.2 2.6 -1.5 2.4 -3 c -0.1 -1.3 -1.2 -2.3 -2.4 -2.4 c -1.4 0.1 -2.5 1.3 -2.4 2.7 c 0 0.1 0 0.2 0 0.3 c -1.1 2.3 -1.5 4.9 -1.3 7.5 c -1 -1.7 -1.9 -3.4 -2.9 -5.2 c 1.6 -0.9 2.2 -2.9 2.5 -4.4 c 0.6 -3.1 0.6 -6.2 0 -9.3 l -0.2 -0.9 l -0.7 0.6 c -2 1.6 -3.4 3.9 -3.9 6.5 c -0.1 0.7 -0.2 1.4 -0.2 2.1 c -4.6 -10.9 -7 -22.5 -6.9 -34.3 c 0 -44.5 33.1 -81.4 76.2 -87.6 l 2.4 -0.9 c 0.5 -0.2 1 -0.4 1.5 -0.6 C 39.8 15.1 4.2 53.3 4.2 99.8 c 0 13.5 3 26.8 8.9 38.9 C 9.9 135.1 5.6 132.6 0.8 131.7 z M 10.5 149.2 c -0.8 0.1 -1.5 -0.4 -1.6 -1.2 c -0.1 -0.8 0.4 -1.5 1.2 -1.6 c 0.2 0 0.3 0 0.5 0 c 0.8 -0.1 1.5 0.4 1.6 1.2 c 0.1 0.8 -0.4 1.5 -1.2 1.6 C 10.8 149.3 10.6 149.3 10.5 149.2 z M 74.5 193.3 c 0.4 0.2 0.7 0.5 0.9 0.9 c 0.8 1.2 1.2 2.7 1.1 4.2 c 0 0.3 0 0.4 -0.1 0.4 c -0.1 0 -0.2 0 -0.3 0 c -0.2 -0.1 -0.4 -0.2 -0.6 -0.3 c -1 -0.6 -1.8 -1.5 -2.3 -2.5 c -0.3 -0.9 -0.2 -1.9 0.3 -2.6 C 73.6 193.2 73.9 193 74.5 193.3 L 74.5 193.3 z M 75.9 175.3 L 75.9 175.3 c -0.3 -2 0.1 -4 1.1 -5.7 c 0.3 -0.6 0.8 -1 1.4 -1.3 c 0.7 2.2 0.7 4.6 0.1 6.8 c -0.1 0.4 -0.3 0.9 -0.5 1.2 c -0.2 0.3 -0.5 0.5 -0.9 0.5 C 76.4 176.8 76 176 75.9 175.3 L 75.9 175.3 z M 57.9 193 c -1 0.3 -1.6 0.3 -2 0 c -0.3 -0.4 -0.3 -0.9 0 -1.3 c 0.4 -0.5 0.9 -0.9 1.4 -1.1 c 0.5 -0.2 0.9 -0.5 1.4 -0.7 c 3.2 -0.3 6.4 -1 9.4 -2.1 C 65.1 190 61.6 191.8 57.9 193 z M 65.3 187.5 c -0.5 0.1 -1 0.2 -1.3 0.3 c -1.2 0.3 -2.4 0.5 -3.5 0.7 c -0.7 0.1 -1.3 0.2 -1.9 0.2 c -1.1 0.1 -2.1 0.2 -3.1 0.2 c -1.2 0 -1.8 -0.2 -2.1 -0.6 c -0.2 -0.5 0 -1 0.5 -1.4 c 0.6 -0.4 1.2 -0.7 1.9 -0.8 c 0.7 -0.2 1.5 -0.3 2.2 -0.4 c 1.4 0.3 2.8 0.5 4.3 0.6 c 0.5 0.1 1.4 0.1 2.5 0.1 h 3.7 C 67.4 186.9 66.3 187.2 65.3 187.5 L 65.3 187.5 z M 60.4 172.5 c 0.1 0 0.2 -0.1 0.3 -0.1 c 0.6 0.1 1.1 0.4 1.5 0.8 l 0 0 c 2.9 2.6 5.4 5.6 7.4 8.9 c -2.4 -2.2 -5 -4.1 -7.8 -5.6 c -0.3 -0.4 -0.7 -0.8 -1 -1.2 c -0.4 -0.5 -0.7 -1 -0.9 -1.6 C 59.9 173.2 60 172.8 60.4 172.5 L 60.4 172.5 z M 56.1 177.2 c -0.3 -0.5 -0.2 -1 0.1 -1.4 c 0.2 -0.2 0.4 -0.2 0.7 -0.2 c 0.5 0 1 0.2 1.5 0.4 l 0 0 c 0.9 0.4 1.8 0.9 2.8 1.4 c 0.5 0.3 1.1 0.6 1.7 1 c 1 0.6 2 1.3 2.9 2 c 0.3 0.2 0.7 0.5 1.2 0.9 c 0.9 0.7 1.7 1.4 2.4 2.2 c -0.4 -0.2 -0.8 -0.4 -1.2 -0.6 c -0.7 -0.3 -1.4 -0.6 -2.2 -0.9 c -2 -0.7 -4 -1.3 -6 -1.8 c -0.8 -0.5 -1.6 -1 -2.4 -1.6 C 56.9 178.3 56.4 177.8 56.1 177.2 L 56.1 177.2 z M 67.9 185.3 c -0.4 0 -4.7 0 -5.6 -0.1 s -1.6 -0.2 -2.5 -0.3 c -0.6 -0.1 -1.3 -0.2 -1.9 -0.3 c -1.4 -0.3 -2.7 -0.6 -4.1 -1 c -0.8 -0.2 -1.5 -0.5 -2.1 -1 c -0.5 -0.4 -0.6 -1.1 -0.4 -1.7 c 0.4 -0.5 1.1 -0.8 1.8 -0.7 c 0.3 0 0.5 0 0.8 0 l 1.4 0.2 l 4.2 0.8 c 0.6 0.1 1.3 0.3 1.9 0.5 c 2.6 0.7 5.2 1.6 7.6 2.8 l 0.4 0.2 C 69 185.1 68.4 185.3 67.9 185.3 L 67.9 185.3 z M 38.3 155.2 c 4.2 4.2 5.8 10.4 4.1 16.2 h -0.1 C 38.3 167 36.8 160.9 38.3 155.2 z M 41.7 172.3 l 0.4 0.4 c -3.8 2.1 -8 3.3 -12.3 3.5 c -1.9 0.1 -3.8 -0.2 -5.5 -1 C 29 170.8 35.9 169.7 41.7 172.3 L 41.7 172.3 z M 15.4 160.9 c -1.6 -0.6 -3.6 -1.7 -4.5 -3.4 c 3.1 -0.9 6.3 -0.9 9.4 -0.1 c 3 0.7 5.7 2.1 8 4.2 C 24 162.7 19.5 162.5 15.4 160.9 z M 26.4 139.8 c 4 5.6 4.8 12.9 2.1 19.2 C 24.5 153.4 23.7 146.1 26.4 139.8 z M 21.2 135.3 c 0.9 0.2 1.5 1.1 1.3 2 c -0.1 0.6 -0.6 1.1 -1.3 1.3 c -0.9 -0.2 -1.5 -1.1 -1.3 -2 C 20 136 20.5 135.5 21.2 135.3 z M 13.4 132.2 c 0.4 -2 1.4 -3.8 2.8 -5.2 c 0.4 2.6 0.4 5.3 -0.1 7.9 c -0.2 1.3 -0.8 2.6 -1.7 3.5 C 13.3 136.5 13 134.3 13.4 132.2 z M 13.5 140.9 c -2.4 -0.5 -4.8 -1.3 -7 -2.4 c -2.3 -1.2 -4.1 -3.1 -5 -5.5 C 6.3 134.2 10.5 136.9 13.5 140.9 z" stroke-linecap="round" />
</g>
	<g transform="matrix(1 0 0 1 46.75 -5.249999999999972)"  >
<path style="stroke: none; stroke-width: 1; stroke-dasharray: none; stroke-linecap: butt; stroke-dashoffset: 0; stroke-linejoin: miter; stroke-miterlimit: 4; fill: rgb(130,115,151); fill-rule: nonzero; opacity: 1;"  paint-order="stroke"  transform=" translate(-140.75, -94.70000000000002)" d="M 187.2 68.4 l 0.8 0.1 l -0.2 -0.8 c -0.8 -3.1 -2.9 -5.7 -5.8 -7.1 c -2.7 -1.3 -5.7 -2.3 -8.7 -2.8 l -0.3 -0.1 c -1.3 -2.4 -2.8 -4.8 -4.3 -7.1 c 1.9 1 4 1.7 6.1 2 c 0.3 1.3 1.4 2.2 2.7 2.1 c 1.4 0.2 2.7 -0.7 2.9 -2.1 s -0.7 -2.7 -2.1 -2.9 c -0.3 0 -0.5 0 -0.8 0 c -1.2 0 -2.2 0.7 -2.6 1.8 c -2.9 -0.4 -5.7 -1.5 -8 -3.4 c -1.7 -2.3 -3.5 -4.6 -5.4 -6.7 c 1.8 1.2 3.8 2 5.9 2.5 c 1.6 0.4 3.2 0.6 4.8 0.6 c 2 0 3.9 -0.3 5.8 -0.9 l 0.5 -0.2 l -0.2 -0.5 c -0.7 -2 -2.5 -3.6 -5.3 -4.7 c -4.7 -1.8 -9.8 -1.9 -14.6 -0.4 l -0.2 0.1 c -2.8 -2.8 -5.8 -5.5 -8.9 -7.9 c 5.7 1.1 11.6 -0.7 15.6 -4.9 l 0.5 -0.5 l -0.6 -0.4 c -1.8 -1.1 -4 -1.6 -6.1 -1.5 h -0.6 c -4.7 0.2 -9.2 1.5 -13.2 3.9 c -3.1 -2.1 -6.3 -4 -9.6 -5.7 c 0.9 0 1.7 -0.4 2.2 -1.2 c 0.5 -1 0.3 -2.3 -0.5 -3.1 c -0.7 -0.6 -1.6 -1.1 -2.6 -1.3 c -0.6 -0.2 -1.1 -0.3 -1.7 -0.4 c 0.7 -0.1 1.5 -0.5 2.1 -0.9 c 0.8 -0.6 1.1 -1.8 0.7 -2.7 c -0.4 -0.9 -1.4 -1.3 -2.8 -1.3 h -0.3 h -0.6 c 0.4 -0.3 0.8 -0.6 1.1 -1 c 0.6 -0.8 0.5 -1.9 -0.1 -2.6 c -0.4 -0.4 -1 -0.7 -1.6 -0.6 c -0.5 0 -1.1 0.1 -1.6 0.3 l 0 0 c -4.2 1.4 -10.1 4.2 -13.2 7.7 l 0 0 c -1.7 -0.4 -3.3 -0.8 -5 -1.2 c 1.9 -1 3.2 -2.7 3.6 -4.8 l 0.2 -0.1 c 0.9 -1.1 1.1 -2.6 0.6 -3.9 c -0.6 -1.2 -1.5 -2.3 -2.7 -3.1 c -0.3 -0.2 -0.6 -0.4 -0.9 -0.5 C 112.1 0 112 0 111.8 0 c -0.3 0 -0.6 0.1 -0.9 0.3 c -0.3 0.3 -0.5 0.8 -0.5 1.2 c -0.1 1.7 0.3 3.5 1.3 4.9 c 0.3 0.5 0.7 1 1.2 1.3 c 0.3 0.1 0.5 0.2 0.8 0.3 c -0.6 2.1 -2.3 3.6 -4.5 4 c -0.1 0 -0.1 0 -0.2 0.1 c -5.1 -0.9 -10.3 -1.3 -15.5 -1.3 v 1 c 3.9 0 7.7 0.3 11.6 0.8 h 0.1 c 2.1 0.8 3.9 2.5 4.7 4.6 c 0.7 1.6 0.8 3.4 0.3 5.1 c -0.4 0.2 -0.8 0.4 -1.1 0.8 c -0.3 0.5 -0.6 1.1 -0.7 1.6 c -0.7 2.6 -0.6 5.4 0.2 8 l 0.2 0.4 l 0.5 -0.1 c 1.1 -0.3 2.1 -1 2.7 -2 c 1.2 -2 1.6 -4.3 1.3 -6.5 c -0.1 -1 -0.8 -1.9 -1.8 -2.4 c 0.5 -1.8 0.3 -3.8 -0.4 -5.5 c -0.6 -1.4 -1.6 -2.7 -2.8 -3.7 c 2.4 0.4 4.9 0.9 7.2 1.5 l 0.2 0.4 l 0.1 0.2 c 0 0 0 0 0 0.1 c 1.3 4.4 5.8 9.6 9.2 12.6 c 1.1 1 2.1 1.3 3 0.9 c 0.9 -0.5 1.3 -1.4 1.1 -2.4 c -0.1 -0.5 -0.3 -0.9 -0.6 -1.4 l 0.6 0.3 l 0 0 c 1.5 0.7 2.6 0.7 3.4 0.1 c 0.7 -0.7 0.9 -1.9 0.4 -2.8 c -0.4 -0.7 -1 -1.4 -1.8 -1.8 l -0.1 -0.1 c 0.5 0.1 1.1 0.2 1.6 0.2 c 4.2 2 8.3 4.4 12.1 7.1 c -2.3 6.6 -0.3 13.9 4.9 18.6 l 0.6 0.6 l 0.3 -0.8 c 1.6 -5.3 0.8 -11 -2.2 -15.6 c 3.7 2.9 7.2 6 10.4 9.4 c -3.4 7.2 -2.5 15.7 2.5 21.9 l 0.5 0.6 l 0.4 -0.8 c 2.7 -5.5 2.8 -12 0.2 -17.6 c 2.3 2.8 4.5 5.7 6.4 8.8 c 0.8 2.8 0.8 5.8 -0.2 8.6 c -0.4 -0.6 -1.1 -1 -1.8 -1 c -1.5 0.2 -2.6 1.5 -2.4 3 c 0.1 1.3 1.2 2.3 2.4 2.4 c 1.4 -0.1 2.5 -1.3 2.4 -2.7 c 0 -0.1 0 -0.2 0 -0.3 c 1.1 -2.3 1.5 -4.9 1.3 -7.5 c 1 1.7 1.9 3.4 2.9 5.2 c -1.6 0.9 -2.2 2.9 -2.5 4.4 c -0.6 3.1 -0.6 6.2 0 9.3 l 0.2 0.9 l 0.7 -0.6 c 2 -1.6 3.4 -3.9 3.9 -6.5 c 0.1 -0.7 0.2 -1.4 0.2 -2.1 c 4.6 10.9 7 22.5 6.9 34.3 c 0 44.5 -33.1 81.4 -76.2 87.6 l -2.4 0.9 c -0.5 0.2 -1 0.4 -1.5 0.6 c 45.6 -4.4 81.2 -42.6 81.2 -89.1 c 0 -13.5 -3 -26.8 -8.9 -38.9 C 178.1 65 182.4 67.4 187.2 68.4 z M 177.5 50.8 c 0.8 -0.1 1.5 0.4 1.6 1.2 c 0.1 0.8 -0.4 1.5 -1.2 1.6 c -0.2 0 -0.3 0 -0.5 0 c -0.8 0.1 -1.5 -0.4 -1.6 -1.2 c -0.1 -0.8 0.4 -1.5 1.2 -1.6 C 177.2 50.8 177.4 50.8 177.5 50.8 z M 113.5 6.7 c -0.4 -0.2 -0.7 -0.5 -0.9 -0.9 c -0.8 -1.2 -1.2 -2.7 -1.1 -4.2 c 0 -0.3 0 -0.4 0.1 -0.4 c 0.1 0 0.2 0 0.3 0 c 0.2 0.1 0.4 0.2 0.6 0.3 c 1 0.6 1.8 1.5 2.3 2.5 c 0.3 0.9 0.2 1.9 -0.3 2.6 C 114.4 6.8 114.1 7 113.5 6.7 L 113.5 6.7 z M 112.1 24.7 L 112.1 24.7 c 0.3 2 -0.1 4 -1.1 5.7 c -0.3 0.6 -0.8 1 -1.4 1.3 c -0.7 -2.2 -0.7 -4.6 -0.1 -6.8 c 0.1 -0.4 0.3 -0.9 0.5 -1.2 c 0.2 -0.3 0.5 -0.5 0.9 -0.5 C 111.6 23.3 112 24 112.1 24.7 L 112.1 24.7 z M 130.1 7 c 1 -0.3 1.6 -0.3 2 0 c 0.3 0.4 0.3 0.9 0 1.3 c -0.4 0.5 -0.9 0.9 -1.4 1.1 c -0.5 0.2 -0.9 0.5 -1.4 0.7 c -3.2 0.3 -6.4 1 -9.4 2.1 C 122.9 10 126.4 8.3 130.1 7 z M 122.7 12.6 c 0.5 -0.1 1 -0.2 1.3 -0.3 c 1.2 -0.3 2.4 -0.5 3.5 -0.7 c 0.7 -0.1 1.3 -0.2 1.9 -0.2 c 1.1 -0.1 2.1 -0.2 3.1 -0.2 c 1.2 0 1.9 0.2 2.1 0.6 c 0.2 0.5 0 1 -0.4 1.4 c -0.6 0.4 -1.2 0.7 -1.9 0.8 c -0.7 0.2 -1.4 0.3 -2.2 0.4 c -1.4 -0.3 -2.8 -0.5 -4.3 -0.6 c -0.5 -0.1 -1.4 -0.1 -2.5 -0.1 h -3.7 C 120.6 13.2 121.7 12.8 122.7 12.6 L 122.7 12.6 z M 127.6 27.6 c -0.1 0 -0.2 0.1 -0.3 0.1 c -0.6 -0.1 -1.1 -0.4 -1.5 -0.8 l 0 0 c -2.9 -2.6 -5.4 -5.6 -7.4 -8.9 c 2.4 2.2 5 4.1 7.8 5.6 c 0.3 0.4 0.7 0.8 1 1.2 c 0.4 0.5 0.7 1 0.9 1.6 C 128.1 26.8 128 27.3 127.6 27.6 L 127.6 27.6 z M 131.9 22.9 c 0.3 0.5 0.2 1 -0.1 1.4 c -0.2 0.2 -0.4 0.2 -0.7 0.2 c -0.5 0 -1 -0.2 -1.5 -0.4 l 0 0 c -0.9 -0.4 -1.8 -0.9 -2.8 -1.4 c -0.6 -0.3 -1.1 -0.6 -1.7 -1 c -1 -0.6 -2 -1.3 -2.9 -2 c -0.3 -0.2 -0.7 -0.5 -1.2 -0.9 c -0.9 -0.7 -1.7 -1.4 -2.4 -2.2 c 0.4 0.2 0.8 0.4 1.2 0.6 c 0.7 0.3 1.4 0.6 2.2 0.9 c 2 0.7 4 1.3 6 1.8 c 0.8 0.5 1.6 1 2.4 1.6 C 131.1 21.8 131.6 22.3 131.9 22.9 L 131.9 22.9 z M 120.1 14.7 c 0.4 0 4.7 0 5.6 0.1 c 0.9 0.1 1.6 0.2 2.4 0.3 c 0.6 0.1 1.3 0.2 1.9 0.3 c 1.4 0.3 2.7 0.6 4.1 1 c 0.8 0.2 1.5 0.5 2.1 1 c 0.5 0.4 0.6 1.1 0.4 1.7 c -0.4 0.5 -1.1 0.8 -1.8 0.7 c -0.3 0 -0.5 0 -0.8 0 l -1.4 -0.2 l -4.2 -0.8 c -0.6 -0.1 -1.3 -0.3 -1.9 -0.5 c -2.6 -0.7 -5.2 -1.6 -7.6 -2.8 l -0.4 -0.2 C 119 15 119.6 14.7 120.1 14.7 L 120.1 14.7 z M 149.7 44.8 c -4.2 -4.2 -5.8 -10.4 -4.1 -16.2 h 0.1 C 149.7 33 151.2 39.1 149.7 44.8 z M 146.3 27.8 l -0.4 -0.4 c 3.8 -2.1 8 -3.3 12.3 -3.5 c 1.9 -0.1 3.8 0.2 5.5 1 C 159 29.2 152.1 30.4 146.3 27.8 L 146.3 27.8 z M 172.6 39.2 c 1.6 0.6 3.6 1.7 4.5 3.4 c -3.1 0.9 -6.3 0.9 -9.4 0.1 c -3 -0.7 -5.7 -2.1 -8 -4.2 C 164 37.4 168.5 37.6 172.6 39.2 z M 161.6 60.3 c -4 -5.6 -4.8 -12.9 -2.1 -19.2 C 163.5 46.6 164.3 53.9 161.6 60.3 z M 166.8 64.7 c -0.9 -0.2 -1.5 -1.1 -1.3 -2 c 0.1 -0.6 0.6 -1.1 1.3 -1.3 c 0.9 0.2 1.5 1.1 1.3 2 C 168 64.1 167.5 64.6 166.8 64.7 z M 174.6 67.9 c -0.4 2 -1.4 3.8 -2.8 5.2 c -0.4 -2.6 -0.4 -5.3 0.1 -7.9 c 0.2 -1.3 0.8 -2.6 1.7 -3.5 C 174.7 63.6 175 65.8 174.6 67.9 z M 174.5 59.2 c 2.4 0.5 4.8 1.3 7 2.4 c 2.3 1.2 4.1 3.1 5 5.5 C 181.7 65.9 177.5 63.1 174.5 59.2 z" stroke-linecap="round" />
</g>
</g>
</g>
<g transform="matrix(1.9692780337941629 0 0 1.9692780337941629 267.95768273219016 515.4949990840427)" id="tagline-7661fda2-bb96-493c-a811-692a402d13b6-logo-path"  >
<path style="stroke: rgb(70,70,70); stroke-width: 0; stroke-dasharray: none; stroke-linecap: butt; stroke-dashoffset: 0; stroke-linejoin: miter; stroke-miterlimit: 4; fill: rgb(130,115,151); fill-rule: nonzero; opacity: 1;"  paint-order="stroke"  transform=" translate(-49.02, 25.435000000000002)" d="M 2.64 0 L -0.51 0 L 22.89 -50.87 L 25.63 -50.87 L 48.16 0 L 45.23 0 L 37.94 -16.33 L 10.03 -16.33 L 2.64 0 Z M 24.32 -47.09 L 11.24 -18.82 L 36.91 -18.82 L 24.32 -47.09 Z M 50.98 -25.05 L 50.98 -25.05 Q 50.98 -37.13 58.21 -44.26 Q 65.44 -51.38 77.82 -51.38 L 77.82 -51.38 Q 92.14 -51.38 98.55 -42.15 L 98.55 -42.15 L 96.28 -40.65 Q 90.71 -48.89 77.82 -48.89 L 77.82 -48.89 Q 66.8 -48.89 60.24 -42.52 Q 53.69 -36.15 53.69 -25.34 L 53.69 -25.34 Q 53.69 -14.61 59.99 -8.28 Q 66.28 -1.94 77.01 -1.94 L 77.01 -1.94 Q 89.39 -1.94 95.62 -10.36 L 95.62 -10.36 L 97.92 -8.86 Q 90.86 0.51 77.09 0.51 L 77.09 0.51 Q 65 0.51 57.99 -6.37 Q 50.98 -13.26 50.98 -25.05 Z" stroke-linecap="round" />
</g>
</svg>
